<svg xmlns="http://www.w3.org/2000/svg" xmlns:xlink="http://www.w3.org/1999/xlink" viewBox="0 0 4820.21 2717.33"><defs><style>.a{fill:none;}.b{clip-path:url(#a);}.c{fill:#f0fffc;}.d{fill:#c5dee7;}.e{fill:#c5dfe7;}.f{fill:#c3dee5;}</style><clipPath id="a"><rect class="a" x="9.56" y="3.46" width="4800" height="2700"/></clipPath></defs><title>Ресурс 1</title><g class="b"><path class="c" d="M9.56,1299.65S138,1077.93,333.81,1144.17c23.32,7.89,31.29,29,31.29,29s45,7.87,48.26,59.11c3.15,48.84-47.76,107.16-47.76,107.16l8.21,19.66s81.07-61.42,164.82-69.79c57.47-5.74,44.4,32.56,44.4,32.56s54.76-11.54,87.77,10.64c44,29.57,39.09,52.3,39.09,52.3s94-22.81,121.61,35.75c38.89,82.34-21.44,116.17-25.45,154.55-.66,6.34,4.89,16.58,9.77,18.42,26.24,10,81.36-11,110.15,21.52,36.8,41.59,10.78,78.13,10.78,78.13s46.69,1.35,26.52,28.69c-30.75,41.67-111.49,31.79-141.07,23.68-51.4-14.08-107.41-73-150.35-77-108-10-113.91,44.89-113.91,44.89s59.51-6.8,30.95,52.36c-6.16,12.77-43.32,19.18-75,8.13-32.93-11.47-55.37-38.88-55.37-38.88s-3.84,12.62,47.22,96.43c14,23,3.92,109.31,3.92,109.31s20.95-3.85,26.56,1.22c16.8,15.17,24.69,53.13,38.81,69.1,0,0-.07-56.8,58-35.81,8.89,3.22,28.17,51.21,21.17,95.65-7.09,45-43.49,89.34-43.49,89.34s135.51-96.18,256.44-38c102.15,49.09,113.26,238.64,113.26,238.64s6.15-33.59,9.86-44.78c2.68-8.07,15.71-32.25,15.71-32.25s-24.82-115.7-2.49-242.44c19-108.08,57.53-136,57.53-136s-34.85-74.19-3.23-144.3c38.85-86.15,79.6-52.65,79.6-52.65s25.69-32.77,57.65-15.26c21.71,11.89,7.27,40.59,7.27,40.59s105.4-54.73,214.81-30.87c69.58,15.18,106.44,87,106.44,87s55.3-45.58,149.75,48.87c45.07,45.07,107.48,185.75,107.48,185.75s80.82-41.17,191.25-9.37c56.91,16.4,142,66.23,142,66.23s-5.76-100.33,104.14-51.16c170.16,76.12,118.88,303.41,118.88,303.41s16.35-6.4,43.27,31.73c15.87,22.47,7.26,59.86,7.26,59.86a85.8,85.8,0,0,1,26.1-13.8c14.22-4.41,29.93,4.89,29.93,4.89s3.42-71.65,97.62,3.27c87.76,69.8,118.72,283.85,118.72,283.85H0Z"/></g><g class="b"><path class="d" d="M1138.82,2051.68c153.93-114.23,264.38-92.31,387.35-54.94,261.6,79.51,191.88,282.67,191.88,282.67s-18.48-49.29-66.15-79.78c-46.8-29.94-241.26-32.47-241.26,177.88,0,93,122.34,204.66,309,202.08,276.32-3.82,553.65-240.07,662.43-157.43,30.89,23.47-43.22-23.53-163.65,96.91-66.58,66.58-43,184.39-43,184.39H1255.68s-221-122.8-259.28-210.7c-68.5-157.39,19-198,7.66-218.57,0,0-17.17-109.76,134.76-222.51"/><path class="d" d="M9.56,2703.46V1336.13s69.31-110.91,187.62-176.51c108.79-60.32,168.59,3.69,168.59,3.69s-97.72-32.3-199.62,78c-61.71,66.76-18.52,143.55-27.86,195.35-13.89,77-37.5,111.08,59.32,207.9,58.66,58.66,20.91,135.19,20.91,135.19s96.66-51.44,143-49.59c122.11,4.86,134.17,103.13,134.17,103.13s-95.36-25.38-140.5,51c-23.64,40-37.32,126.88-37.32,126.88s-99.14,24.61-160.1,143.26c-66.91,130.22-15.7,266,26.73,327.74C320.9,2680.6,550,2504,550,2504s100.82,117.53,251.66,73.17c115.72-34,72.82-138.21,34.09-199.37-71.44-112.85-207.46-67.14-207.46-67.14s43.29-66.4,151.88-60.11c93.13,5.4,159.42,65.71,206.43,182.83s269.13,270.1,269.13,270.1h-645s23.68-3.52-.61,0"/></g><g class="b"><path class="c" d="M3918.13,1810.94c-11-27.88-77.73-67.32,86.7-171.54,148.38-94,210.13-7.75,210.13-7.75s24.64,11.09,29.07-24.07c4.23-33.48-11-35.72-11-35.72s-34.05,21.43-50.76-31c-12.26-38.5,2.32-61.64,2.32-61.64s-10.91,14-17.7-11.58c-11.46-43.23-22.91-121.31,41.42-194.37,65.53-74.43,105.87-50.88,118.66-25.75,7.68,15.08-1.6,28.17-1.6,28.17s26.92-44.83,57.14-52.26c33.85-8.33,47.22,6.3,47.22,6.3s45.74,2.6,80.1-46.28c32.16-45.76-1.27-63.82-1.27-63.82s-48,.81-73.06-31.31c-19.46-25-23.32-71.27,52.89-139.08,118-105,246.72-55.67,303.83-24.56,16.82,9.17,20.08,28.8,20.08,28.8s-4.54,1771.74-2.74,1763.85S2382,2703.46,2382,2703.46s8.06-143.84,61.19-222.68c146.74-217.74,216.5-87.27,216.5-87.27s89.42-135.37,190.77-180.06c160-70.54,204-9.7,204-9.7s29.3,1.32,37.92-23.19c12.9-36.7,64.5-82.49,138-96.35,166-31.34,138.75,27.78,139.42,40.2.1,1.93,31.18,5.88,55.92,5.88,29.76,0,58.81-2.19,59.59-16.21.25-4.62-43.3-17.59,5.75-54.57,31-23.34,101.08-13.07,101.08-13.07s11.19-19.19,55.08-9.15c26.79,6.14,64.27,29.37,73.4,40.61,0,0,55.42-10.77,126.8-7.78,74.56,3.12,139.56,83,139,75.85,0,0,2.74-21.4,26.19-84.33,21.5-57.69,66.85-58.75,66.85-58.75s-65.81-37-79.67-86.47c-10.62-37.9,3.14-39.84,3.28-53.28,0-4.9-10.49-10.19-14.6-11.08-1.86-.4-31.85,17.56-66.82,22-40.74,5.1-104.45-3.57-83.15-8.23,44.39-9.71,61.62-22.33,78.75-40.87,0,0,3.46-7.45.88-14"/></g><g class="b"><path class="e" d="M2481.47,2429.53c-24.41,28-68.12,100.3-83.67,137.39-34.67,82.69-4.25,136.54-4.25,136.54H3418.67s150-59,132.08-238.27c-29.44-294.83-320.63-268.31-393.2-187.83-98.15,108.87-59.75,221.39-59.75,221.39s14.56-92.89,83.67-126.44c41.47-20.13,121.77-26.57,176.59,42.75,82.74,104.62-54.21,263.85-180,269-216.84,8.87-439.42-22.1-526.84-130-85.54-105.62-41.2-213.47-41.2-197.89,0,0-39.29-29.15-128.59,73.4"/><path class="e" d="M4820.21,2693.93l-9.56-1791s-54.36-31.67-169.84-21.24c-86.25,7.79-168.63,82.29-168.63,82.29s53.91,3.77,87.47,76.94c26.1,56.9-18,135.12-18,135.12s93,74.62,112.48,161.58c57.39,256.6-107.31,353.51-107.31,364.17,0,0-1.21-93.94-78-138.77-103.69-60.49-228.3,14.69-228.3,14.69s140-60,218.28,55.15c77.59,114.21-24.05,203.53-24.05,203.53s212.67,58.07,165.29,427.21c-9.6,74.86-77.85,164.71-159.38,181.72-89.89,18.77-177.32-15.37-177.32-15.37s26.86-107-44-198.32c-29.08-37.45-109.51-82.72-168.4-82.72-9.77,0-58.85,3-64.46-3-18.26-19.52-46-38.49-74.15-55.74-48.41-29.64-112.11-20.25-112.11-20.25s173.62,68.62,204.13,309.68c21.59,170.55-154.7,324.42-154.7,324.42s949,7.87,960-.62"/></g><g class="b"><path class="c" d="M2770,3.15S2747.79,37,2751.06,97.88c2.87,53.59,49.53,58.85,49.53,58.85s-26.68,19.24-18.89,71.7c4.28,28.82,38.13,64.77,38.13,64.77s-10.84,20.93,39.84,39.3c43.29,15.68,71.53-4,71.53-4s16.7,28.06,49.11,15.63c78.64-30.17,105.58-19.62,105.58-19.62s-19.42,7.17-24.56,10.73c-4.5,3.12-14,16-14,16s-29.14,5.79-42.17,16.13c-5.34,4.24-6.36,13-6.36,13s-5.53,1.27-7,2.19c-1.16.71-3.64,4.33-3.64,4.33s-29.37-4.11-20.77,27.28c9.74,35.58,114.47,40.34,114.47,40.34s81.6,20.54,148.45-7.1C3277.33,428,3342,385.33,3342,385.33s20,49.55,72.42,69.45c67.86,25.74,127.38-.44,127.38-.44s-6.66,32.34,12.57,94.74c16.36,53.06,74,102.8,74,102.8l-1.21,8.52s-20.88,6-33.39,20.79c-12,14.14-9.82,23.6-9.82,23.6s-40,.12-56.35,9.66c-26.64,15.52-30.49,30.66-30.49,30.66a44.14,44.14,0,0,0-9.39,4.65c-4.23,2.92-7.4,6.93-8,7.17-12.25,5.24-15.58,4.69-15.58,4.69s-9.7-2.9-12.26-3.28c-2.27-.33-9.36-1.27-9.82,1.16-.51,2.69,4.36.62,9.21,6.68,4.08,5.1,11.24,8,23.17,9.41,30.73,3.58,50.31-8.36,50.31-8.36a127.11,127.11,0,0,0,43.49,3.18c9.92-1,37-13.63,37-13.63s45.49,25.05,114.3,25.05c65.1,0,110.77-21.09,110.77-21.09s7.88,42.84,172.24,28.18c80.32-7.17,190.94-68.8,190.94-68.8s-38.82,50,51.54,33.21c10.94-2,26.53-.09,24.26,5.5-8.76,21.61-37.41,34,52.77,75.35,70.89,32.52,170.78,4.29,170.78,4.29S4475,875,4530.48,906c36.28,20.27,106.74,24.26,106.74,24.26s-.56,44.74,65.54,90.09c55.19,37.87,105.88,38.81,105.88,38.81l3.27-1052.5"/><path class="f" d="M4069.89,503.92s-207.42-79.28-188.32-209.06c38.63-262.35,232.31-192,232.31-192s6.37-34.52,63.62-61.67c46.9-22.24,107.17,14.24,107.17,14.24s8.28-19.85,35.42-38.73,57.75-13.54,57.75-13.54L4812.13,0l8.08,1072.26s-86.73-5.1-139.18-43.12c-66.91-48.51-41.12-99.58-41.12-99.58s-79.48-6.32-109.43-23.59c-55.35-31.91-38.79-66.27-38.79-66.27s-134.41,36.63-180.55-2.85c-60.1-51.42-14.81-90.49-14.81-90.49s3.6-4.64-3.75-12c-5-5-10.57-5.37-14.21-5.76-15-1.64-46.24,1.75-58.72,1.75-20.79,0-26.95-26.83-28.95-33.39-15.23-49.69,130.58-51.7,161.66-35.72,37.5,19.28,32.65,68,127.3,72.38,50.92,2.35,312.1-7.84,304.64-242.2-3.54-111.13-6.47-223-192.24-297.78C4373.18,105.55,4280.28,259,4280.28,259s-122.45-102.19-230.36,15.32c-93.05,101.33,20,231.88,20,229.94"/><path class="f" d="M3094.54,456.7a161.88,161.88,0,0,0,46.75,6.55c25.55-.33,55.48-7.86,68.94-12.71,49.3-17.73,105.2-90.7,138-154.82,34.94-68.31,136.8-40.82,136.8-40.82s-29.35-71.56-109.51-67.32c-67.23,3.56-99.87,27.14-121.47,45-15,12.37-59.78,61.53-59.78,61.53s114.37-70.86,28.89,72.58C3172,452.45,3086,459.37,3096.53,456.27"/></g><g class="b"><path class="c" d="M11.08,1453.64s60.23-3.2,150.6-60c116.2-73.05,99-118.58,99-118.58s88.49-28.64,98-96.18c12.08-85.61-45.53-103.87-45.53-103.87s77-13.91,93.44-73.7c17.4-63.19-3.79-76.9-3.79-76.9s44.57-31.8,55.57-75.45c10.63-42.14-3.95-43.68-3.95-43.68s-14.27-25.33,44.61-58.84c52.08-29.65,60.88-12.53,60.88-12.53s4.81,2.93,2.39,14.78c-2.71,13.25-12.7,14.19-12.7,14.19s-61.09.06-72.1,42.72c-16.45,63.74,48.36,64.69,48.36,64.69s-.84,20,7.59,26.72c9.25,7.4,28.1,15,45.73,10.86,9.45-2.19,20.25,8.84,20.47,3.62,0-.73,2.82-19-16.68-21.28-4.26-.49-14.43-1.42-21.51-3.41-5.32-1.5-6.89-2.38-7-4.75-.18-5.64,6.52-7.47,5.57-20.95-.78-11.05-13.41-16.39-13.41-16.39s-.6-8.54,5.5-17.82c6.89-10.48,14-10.64,14-10.64s4.68,10.14,21.45,11.43c28,2.15,82.35-9.61,152.41-55.63,54.58-35.85,78.09-89.32,54.49-116.35-11.49-13.16,4.38-18.86,4.38-18.86s.2,14.23,39.3,36.54c35.65,20.34,59.65,19,59.65,19s-28.58,53.75,64.43,121.39c76.26,55.47,186,26.7,186,26.7s98.87,67.71,143.17,75.61c40.21,7.18,194.85-15.29,194.85-15.29s46.83,62.14,136.1,84c83.17,20.41,185.37-25,185.37-25s41.69,28.55,58,23.63c30-9.06,73-16.63,73-16.63s11.34-23.55-50.55-35.18c-8.31-1.56-14-23.82-14-23.82s49.5-49.83,36.85-141.57c-10.38-75.36-78.85-81.43-78.85-81.43s118.44-49.45,153.1-115c39.56-74.83-12.6-105.25-12.6-105.25s62.65-3.37,85.21-9.17c18-4.61,76.92-32.47,76.92-32.47s27.58,8.24,74.32-9.29c32.67-12.25,50.58-47.5,52.68-48.29s79.51,42.82,158.36-20.05c44.66-35.6,26-101.33,26-101.33s74.08-68.21,165.71-18.71c121.38,65.57,145.65,27.28,145.65,27.28s-15.88,17.82-1.26,35.45c16.83,20.29,50.58,26.24,50.58,26.24s4,24.37,14,29.49c13.17,6.75,78.7,18,78.7,18s51.43,124,222.27,24.39c154.87-90.32,60.15-145,60.15-145s54.51-6.73,56-47.52-48.32-43.49-48.32-43.49S3288.4,132.52,3387,92.36c67.83-27.64,119.55-89.64,119.55-89.64L9.55,3.46Z"/><path class="f" d="M573.08,203.8c52.42,60.13,9,165.75,61.06,291.71,36.27,87.77,154.61,145.94,154.61,145.94S824.41,667.12,838,674c15,7.55,62.34,22.08,62.34,22.08s-14,75.17,83,131.49c65.92,38.27,169.55,11.86,169.55,11.86s29.81,40.78,118.71,77.85c95.14,39.68,213.78-14.87,213.78-14.87s40,66.19,153.71,84.16c76.17,12,167.3-29.16,167.3-29.16s29.42,25.67,47.22,26.9c15,1,84.81-15.88,84.81-15.88s-.39-57.09-64.6-27.69c-49.3,22.58-98.31,9.52-150.8-15.34-85.77-40.62-30.76-76.09-94.28-97.77-38.11-13-146.59,21.66-177.42,14-101.26-25.16-73.1-30.77-211.52-158.33-92.21-85-317.89,119.33-440.68-274.07-13.25-42.46-6.06-179.08,15.07-219.44C877.67,68.51,987.39,28.54,1050.4,13.47c72.06-17.24,343.84-37.83,394.41,138.19,40.36,140.49-38.5,220.49-125.78,225.27-87.85,4.82-184.25-66.06-184.25-66.06s24.86,183.33,239.39,161.74c130.55-13.15,205.74-118.7,205.74-244.76C1579.91,47.09,1788.55,32,2062,3.47c17.85-1.87-242.41-.75-242.41-.75L9.55,3.47V1197.68c-.36-10.64,261.83,184.43,342.77,3.41,40.39-90.34-33.55-123.65-33.55-123.65s69-23,85.86-70c12.43-34.61,4.78-80.69,24.23-107,77.68-105.22,12.35-87.47,24.4-106.68,44.88-71.57,117.38-79.87,109.47-47.51-1.7,7,15.42-20.18,11.92-29.07-13.72-34.92-164.78-21-199.57,25.22-43.93,58.33-101.63,153.16-148.61,153.16-275.53,0-161.92-452.19-117.26-519C144.41,323.92,217,211.62,321.83,164.88c0,0,169.76-54.55,251.25,38.92"/></g></svg>